# xmcd CD database file
#
# Track frame offsets:
#	150
#	21831
#	48418
#	68426
#	95770
#	116100
#	136725
#	160350
#	179643
#	212875
#	232888
#	252830
#	273599
#	289347
#	313850
#	335962
#
# Disc length: 4772 seconds
#
# Revision: 0
# Processed by: cddbd v1.5.2PL0 Copyright (c) Steve Scherf et al.
# Submitted via: CDex 1.51
#
DISCID=fa12a210
DTITLE=Varios - Salsa y Jazz
DYEAR=2000
DGENRE=Salsa
TTITLE0=Mary Mary - Rebecka Törnqvist
TTITLE1=Angel eyes - Earl Brent
TTITLE2=Do you mind - Rebecka Törnqvist
TTITLE3=Ligia Elena - Rubén Blades
TTITLE4=No hay cama pá tanta gente - El Gran Combo de Puerto Rico
TTITLE5=Bambarakatunga - Celia Cruz
TTITLE6=Amor verdadero - Tito Puente
TTITLE7=Después de tanto tiempo - Orquesta Guayaba
TTITLE8=Quitate tú - Fania all stars
TTITLE9=No puedo parar - Orquesta Maracaibo
TTITLE10=Guajira sentimental - Justo Betancourt
TTITLE11=La calle está durísima - Richie Ray
TTITLE12=La maleta - Sonora Ponceña
TTITLE13=Another goodbye - Warren hill
TTITLE14=Marocco - Marion Meadows
TTITLE15=Pinocchio - Roy Hargrove
EXTD=YEAR: 2000
EXTT0=
EXTT1=
EXTT2=
EXTT3=
EXTT4=
EXTT5=
EXTT6=
EXTT7=
EXTT8=
EXTT9=
EXTT10=
EXTT11=
EXTT12=
EXTT13=
EXTT14=
EXTT15=
PLAYORDER=
